<?xml version="1.0" encoding="utf-8"?>
<!-- Generator: Adobe Illustrator 22.1.0, SVG Export Plug-In . SVG Version: 6.00 Build 0)  -->
<svg version="1.1" id="Layer_1" xmlns="http://www.w3.org/2000/svg" xmlns:xlink="http://www.w3.org/1999/xlink" x="0px" y="0px"
	 viewBox="0 0 512 512" style="enable-background:new 0 0 512 512;" xml:space="preserve">
<g>
	<path d="M57.6,31l36.1,405l162.1,45l162.5-45.1L454.4,31H57.6L57.6,31z M387.3,410.2l-130.6,36.2v0.2l-0.3-0.1l-0.3,0.1v-0.2
		l-130.6-36.2L94.5,64.1h323.7C418.2,64.1,387.3,410.2,387.3,410.2z M317,264l-5.7,64.4l-55.5,15l-55.3-14.9l-3.5-39.7H147l6.9,78
		L256,395l101.7-28.2l13.6-152.5h-181l-4.5-50.9h190.1l4.4-49.7H131.4L144.8,264H317z"/>
</g>
</svg>
