<?xml version="1.0" encoding="UTF-8" standalone="no"?><!DOCTYPE svg PUBLIC "-//W3C//DTD SVG 1.1//EN" "http://www.w3.org/Graphics/SVG/1.1/DTD/svg11.dtd"><svg width="100%" height="100%" viewBox="0 0 2000 2000" version="1.1" xmlns="http://www.w3.org/2000/svg" xmlns:xlink="http://www.w3.org/1999/xlink" xml:space="preserve" xmlns:serif="http://www.serif.com/" style="fill-rule:evenodd;clip-rule:evenodd;"><g><path d="M1003.88,1100.62l-104.064,-309.959c-21.724,-70.241 -37.24,-134.07 -52.757,-196.368l-4.758,0c-13.965,62.298 -31.033,129.285 -51.205,194.837l-102.513,311.49l315.297,0Zm-343.227,108.615l-108.719,338.668l-139.753,0l355.64,-1076.58l163.028,0l357.191,1076.58l-144.407,0l-111.823,-338.668l-371.157,0Z" style="fill:#fff;fill-rule:nonzero;stroke:#fefefe;stroke-width:54.17px;"/><path d="M1432.55,1547.91l0,-773.127l136.65,0l0,773.127l-136.65,0Zm65.17,-915.331c-51.205,0 -85.341,-41.533 -85.341,-91.007c0,-49.571 35.688,-89.476 88.444,-89.476c52.86,0 86.997,39.905 86.997,89.476c0,49.474 -34.137,91.007 -88.548,91.007l-1.552,0Z" style="fill:#fff;fill-rule:nonzero;stroke:#fefefe;stroke-width:58.33px;"/></g></svg>