<?xml version="1.0" encoding="UTF-8" standalone="no"?><!DOCTYPE svg PUBLIC "-//W3C//DTD SVG 1.1//EN" "http://www.w3.org/Graphics/SVG/1.1/DTD/svg11.dtd"><svg width="100%" height="100%" viewBox="0 0 10417 10417" version="1.1" xmlns="http://www.w3.org/2000/svg" xmlns:xlink="http://www.w3.org/1999/xlink" xml:space="preserve" xmlns:serif="http://www.serif.com/" style="fill-rule:evenodd;clip-rule:evenodd;stroke-linejoin:round;stroke-miterlimit:2;"><g><path d="M8486.43,298.781c409.782,0 797.03,163.74 1089.53,461.401c292.445,297.89 453.054,692.33 453.054,1109.66l0,6676.98c0,417.332 -160.665,811.772 -453.054,1109.55c-292.501,297.89 -679.805,461.515 -1089.53,461.515l-6556.19,0c-409.783,0 -797.031,-163.625 -1089.48,-461.515c-292.501,-297.776 -453.166,-692.216 -453.166,-1109.55l0,-6676.98c0,-417.333 160.665,-811.773 453.166,-1109.66c292.502,-297.661 679.75,-461.401 1089.48,-461.401l6556.19,0m0,-98.209l-6556.19,0c-901.499,0 -1639.07,751.164 -1639.07,1669.27l0,6676.98c0,918.109 737.575,1669.27 1639.07,1669.27l6556.19,0c901.499,0 1639.07,-751.164 1639.07,-1669.27l0,-6676.98c0,-918.109 -737.575,-1669.27 -1639.07,-1669.27Z" style="fill:#fff;fill-rule:nonzero;stroke:#fff;stroke-width:416.67px;"/><g><path d="M2830.54,2263.87l2953.1,0c544.583,0 982.083,124.107 1310.65,374.345c328.571,250.179 493.631,626.25 493.631,1131.85c0,306.369 -74.881,568.571 -224.584,786.428c-149.881,217.798 -364.226,388.155 -643.512,507.202l0,16.846c374.584,80.119 658.691,257.024 851.012,531.131c192.322,275.773 289.346,619.523 289.346,1034.94c0,238.274 -42.56,461.31 -127.679,667.203c-85.119,207.559 -217.917,386.488 -400.06,536.071c-182.142,149.821 -413.511,269.107 -697.857,357.5c-284.166,88.571 -621.309,132.798 -1012.68,132.798l-2791.37,0l0,-6076.31Zm1063.81,2544.52l1736.13,0c255.357,0 468.036,-71.488 638.274,-217.857c170.238,-146.369 255.298,-354.048 255.298,-626.488c0,-306.31 -76.608,-522.322 -229.643,-646.548c-153.155,-124.345 -374.465,-187.262 -663.81,-187.262l-1736.25,0l0,1678.15Zm0,2663.81l1880.77,0c323.512,0 575.357,-83.571 752.5,-252.023c178.631,-166.786 268.988,-405.119 268.988,-711.489c0,-301.25 -88.571,-531.011 -268.988,-694.464c-180.417,-163.333 -428.988,-241.666 -752.5,-241.666l-1880.77,0l0,1899.64Z" style="fill:#fff;fill-rule:nonzero;stroke:#fff;stroke-width:4.17px;"/></g></g></svg>