<?xml version="1.0" encoding="UTF-8" standalone="no"?><!DOCTYPE svg PUBLIC "-//W3C//DTD SVG 1.1//EN" "http://www.w3.org/Graphics/SVG/1.1/DTD/svg11.dtd"><svg width="100%" height="100%" viewBox="0 0 10417 10417" version="1.1" xmlns="http://www.w3.org/2000/svg" xmlns:xlink="http://www.w3.org/1999/xlink" xml:space="preserve" xmlns:serif="http://www.serif.com/" style="fill-rule:evenodd;clip-rule:evenodd;stroke-linejoin:round;stroke-miterlimit:2;"><g><path d="M9489.58,4236.98c0,-171.875 -135.416,-312.5 -307.291,-312.5c-166.667,0 -304.688,138.021 -304.688,312.5c0,171.875 135.417,312.5 304.688,312.5c171.875,2.604 307.291,-138.021 307.291,-312.5Zm-307.291,226.563c-117.188,0 -208.334,-98.959 -208.334,-226.563c0,-125 91.146,-223.958 208.334,-223.958c119.791,0 213.541,98.958 213.541,223.958c0,127.604 -93.75,226.563 -213.541,226.563Z" style="fill:#76587e;fill-rule:nonzero;"/><path d="M9265.62,4263.02c15.625,-5.208 49.479,-28.646 49.479,-78.125c0,-59.896 -39.062,-96.354 -104.166,-96.354l-138.021,0l0,294.271l91.146,-0.001l-0.001,-98.958l23.438,0l41.667,98.958l98.958,0.001l-54.688,-101.563c-5.208,-15.625 -7.812,-18.229 -7.812,-18.229Zm-78.125,-41.667l-23.438,0l0.001,-70.312l23.437,0c20.833,0 31.25,10.416 31.25,33.854c2.604,23.437 -10.417,36.458 -31.25,36.458Z" style="fill:#76587e;fill-rule:nonzero;"/><circle cx="2723.96" cy="4244.79" r="234.375" style="fill:#fff;"/><path d="M2968.75,4632.81l-1072.92,-0.001l0,-70.312c0,-138.021 138.021,-140.625 208.334,-140.625c80.729,0 117.187,7.813 117.187,7.813l0,-380.209c0,0 -72.916,-10.416 -171.875,-10.416c-223.958,0 -638.021,62.5 -638.021,536.458l0,59.896l-195.312,0l0,351.562l195.312,0l0,742.188l-182.291,0l0,351.562l880.208,0l0,-351.562l-213.542,0l0,-742.188l585.938,0l0,742.188l-182.292,0l0,351.562l851.563,0l0,-351.562l-182.292,0l0,-1096.35Zm1822.92,0l-768.229,0l0,351.562l130.208,0l-166.667,520.833c-31.25,85.938 -39.062,190.105 -39.062,190.105l-10.417,0c0,0 -7.813,-104.167 -39.063,-190.105l-166.666,-520.833l130.208,0l0,-351.562l-768.229,0l0,351.562l161.458,0l401.042,1093.75l572.917,0l401.041,-1093.75l161.459,0l0,-351.562Zm1421.88,664.062c0,-401.042 -242.188,-697.917 -671.875,-697.917c-466.146,0 -752.605,330.73 -752.605,755.209c0,385.416 278.646,757.812 794.271,757.812c390.625,0 622.396,-203.125 622.396,-203.125l-177.083,-335.937c0,0 -192.709,138.021 -406.25,138.021c-153.646,0 -299.479,-80.73 -335.938,-265.625l916.667,0c-2.604,-2.605 10.417,-101.563 10.417,-148.438Zm-916.667,-119.792c26.042,-111.979 93.75,-213.541 231.771,-213.541c106.771,0 182.292,98.958 182.292,213.541l-414.063,0Zm2971.35,-210.937l-5.208,0c0,0 5.208,-28.646 5.208,-72.917l0,-75.521c0,-132.812 -72.916,-184.895 -205.729,-184.895l-455.729,0l0,351.562l135.417,0c39.062,0 62.5,23.438 62.5,62.5l0,682.292l-195.313,0l0,351.562l877.604,0l0,-351.562l-195.312,0l0,-210.938c0,-263.021 130.208,-434.896 398.437,-434.896c59.896,0 98.959,7.813 98.959,7.813l-0.001,-476.563c0.001,0 -28.645,-5.208 -57.291,-5.208c-218.75,-2.604 -401.042,158.854 -463.542,356.771Zm-1283.85,0l-5.208,0c0,0 5.208,-28.646 5.208,-72.917l0,-75.521c0,-132.812 -72.917,-184.895 -205.729,-184.895l-455.729,0l0,351.562l135.416,0c39.063,0 62.5,23.438 62.5,62.5l0,682.292l-195.312,0l0,351.562l877.604,0l0,-351.562l-195.312,0l0,-210.938c0,-263.021 130.208,-434.896 398.437,-434.896c59.896,0 98.958,7.813 98.958,7.813l0,-476.563c0,0 -28.645,-5.208 -57.291,-5.208c-221.354,-2.604 -403.646,158.854 -463.542,356.771Z" style="fill:#76587e;fill-rule:nonzero;"/></g></svg>