<?xml version="1.0" encoding="UTF-8" standalone="no"?><!DOCTYPE svg PUBLIC "-//W3C//DTD SVG 1.1//EN" "http://www.w3.org/Graphics/SVG/1.1/DTD/svg11.dtd"><svg width="100%" height="100%" viewBox="0 0 34725 34725" version="1.1" xmlns="http://www.w3.org/2000/svg" xmlns:xlink="http://www.w3.org/1999/xlink" xml:space="preserve" xmlns:serif="http://www.serif.com/" style="fill-rule:evenodd;clip-rule:evenodd;stroke-linejoin:round;stroke-miterlimit:2;"><g><g><path d="M6747.12,5324.08l1931.28,21666.7l8672.04,2407.41l8693.42,-2412.76l1931.28,-21661.3l-21228,0l-0.013,-0.025Zm17638.3,20286.5l-6986.83,1936.62l0,10.7l-16.05,-5.35l-16.046,5.35l0,-10.7l-6986.83,-1936.62l-1658.44,-18515.7l17317.3,0l-1653.09,18515.7l-0.004,0Zm-3760.91,-7821.42l-304.937,3445.27l-2969.14,802.471l-2958.44,-797.121l-187.241,-2123.87l-2674.9,0l369.137,4172.83l5462.12,1508.65l5440.75,-1508.65l727.571,-8158.46l-9683.12,0l-240.742,-2723.05l10170,0l235.391,-2658.85l-13315.7,0l716.871,8040.75l9212.38,0l0.012,0.025Z" style="fill:#fff;fill-rule:nonzero;"/></g></g></svg>