<?xml version="1.0" encoding="UTF-8" standalone="no"?><!DOCTYPE svg PUBLIC "-//W3C//DTD SVG 1.1//EN" "http://www.w3.org/Graphics/SVG/1.1/DTD/svg11.dtd"><svg width="100%" height="100%" viewBox="0 0 2000 2000" version="1.1" xmlns="http://www.w3.org/2000/svg" xmlns:xlink="http://www.w3.org/1999/xlink" xml:space="preserve" xmlns:serif="http://www.serif.com/" style="fill-rule:evenodd;clip-rule:evenodd;stroke-linejoin:round;stroke-miterlimit:2;"><g><path d="M561.956,427.26l0,1137.12l-149.776,0l0,-1137.12l149.776,0" style="fill:#fefefe;fill-rule:nonzero;stroke:#fff;stroke-width:58.33px;"/><path d="M923.205,1468.34c31.285,5.735 76.849,5.735 125.249,5.735c264.668,1.361 408.339,-146.781 408.339,-403.503c1.417,-227.074 -126.666,-366.76 -388.5,-366.76c-63.987,0 -112.386,5.638 -145.088,12.734l0,751.794Zm-125.249,-842.098c76.85,-11.276 166.562,-19.733 264.668,-19.733c177.9,0 304.566,39.466 388.501,117.036c86.879,77.571 136.695,189.067 136.695,342.847c0,155.141 -49.816,282.093 -138.112,369.578c-91.021,88.847 -239.052,136.77 -425.454,136.77c-89.713,0 -162.202,-2.819 -226.298,-11.276l0,-935.222" style="fill:#fefefe;fill-rule:nonzero;stroke:#fff;stroke-width:58.33px;"/></g></svg>