<?xml version="1.0" encoding="UTF-8" standalone="no"?><!DOCTYPE svg PUBLIC "-//W3C//DTD SVG 1.1//EN" "http://www.w3.org/Graphics/SVG/1.1/DTD/svg11.dtd"><svg width="100%" height="100%" viewBox="0 0 67 67" version="1.1" xmlns="http://www.w3.org/2000/svg" xmlns:xlink="http://www.w3.org/1999/xlink" xml:space="preserve" xmlns:serif="http://www.serif.com/" style="fill-rule:evenodd;clip-rule:evenodd;stroke-linejoin:round;stroke-miterlimit:2;"><circle cx="33.333" cy="33.333" r="31.12" style="fill:#fff;"/><clipPath id="_clip1"><circle cx="33.333" cy="33.333" r="31.12"/></clipPath><g clip-path="url(#_clip1)"><g><path d="M33.333,35.956c5.47,0 10.234,-3.405 12.425,-8.27c0.82,-1.822 1.279,-3.849 1.279,-5.979c0,-7.816 -6.186,-14.248 -13.704,-14.248c-7.517,0 -13.704,6.432 -13.704,14.248c0,7.817 6.187,14.249 13.704,14.249Zm9.136,-14.249c0,5.211 -4.124,9.499 -9.136,9.499c-5.011,0 -9.136,-4.288 -9.136,-9.499c0,-5.211 4.125,-9.499 9.136,-9.499c5.012,0 9.136,4.288 9.136,9.499Zm18.272,37.997c0,4.749 -4.568,4.749 -4.568,4.749l-45.679,0c0,0 -4.568,0 -4.568,-4.749c0,-4.75 4.568,-19.386 27.407,-19.386c22.84,0 27.408,14.636 27.408,19.386Zm-4.568,-0.019c-0.004,-1.169 -0.703,-4.683 -3.8,-7.904c-2.979,-3.096 -8.584,-6.326 -19.04,-6.326c-10.46,0 -16.061,3.23 -19.039,6.326c-3.097,3.221 -3.791,6.735 -3.8,7.904l45.679,0Z" style="fill-rule:nonzero;"/><rect x="9.207" y="52.57" width="48.253" height="9.377"/><rect x="13.579" y="47.644" width="39.509" height="7.204"/><rect x="17.09" y="44.663" width="33.654" height="3.26"/><ellipse cx="33.333" cy="21.707" rx="10.945" ry="11.38"/></g></g></svg>