<?xml version="1.0" encoding="UTF-8" standalone="no"?><!DOCTYPE svg PUBLIC "-//W3C//DTD SVG 1.1//EN" "http://www.w3.org/Graphics/SVG/1.1/DTD/svg11.dtd"><svg width="100%" height="100%" viewBox="0 0 2000 2000" version="1.1" xmlns="http://www.w3.org/2000/svg" xmlns:xlink="http://www.w3.org/1999/xlink" xml:space="preserve" xmlns:serif="http://www.serif.com/" style="fill-rule:evenodd;clip-rule:evenodd;stroke-linejoin:round;stroke-miterlimit:2;"><g><path d="M541.279,988.405c28.218,8.215 65.325,11.543 106.877,11.543c157.317,0 250.859,-86.314 250.859,-237.415c0,-149.334 -93.542,-220.673 -235.975,-220.673c-56.436,0 -99.434,6.552 -121.761,11.543l0,435.002Zm-129.099,-537.954c62.328,-13.207 143.984,-23.191 247.862,-23.191c127.652,0 221.195,33.174 280.525,92.97c54.885,53.14 89.098,134.462 89.098,234.087c0,101.185 -26.771,180.948 -78.659,239.079c-68.322,81.323 -179.643,122.816 -305.744,122.816c-38.658,0 -74.318,-1.664 -103.983,-9.879l0,448.208l-129.099,0l0,-1104.09" style="fill:#fefefe;fill-rule:nonzero;stroke:#fff;stroke-width:58.33px;"/><path d="M1149.88,1406.77c40.104,26.622 108.427,56.468 173.751,56.468c93.44,0 137.989,-51.476 137.989,-119.487c0,-69.779 -37.107,-107.945 -132.097,-147.774c-130.649,-53.14 -191.426,-131.239 -191.426,-227.536c0,-129.471 94.989,-235.751 247.758,-235.751c72.767,0 136.542,21.63 175.199,49.812l-31.215,104.617c-28.218,-18.303 -80.106,-46.485 -146.878,-46.485c-77.211,0 -118.763,49.813 -118.763,109.505c0,68.115 41.552,97.961 135.094,137.894c123.105,51.476 188.533,121.151 188.533,242.407c0,142.678 -99.538,242.303 -267.191,242.303c-78.659,0 -151.425,-23.191 -201.866,-56.468l31.112,-109.505" style="fill:#fefefe;fill-rule:nonzero;stroke:#fff;stroke-width:58.33px;"/></g></svg>